<svg width="1070" height="1070" fill="none" xmlns="http://www.w3.org/2000/svg"><path d="M247 439c-30.928 0-73.729 17.729-95.598 39.598L0 630h107l91.009-91.009C214.02 522.98 245.356 510 268 510h290.145l71-71H247z" fill="#E10600"/><path d="M266.11 522c-17.673 0-42.136 10.125-54.639 22.616L126 630h101.103l29.309-29.279c7.033-7.025 20.793-12.721 30.734-12.721h192.787L546 522H266.11zM644 439h119.771l-190 190H454l190-190zM660.376 553.6h100.587c56.569 0 100.951.728 101.497 1.637.545.91-.364 2.729-2.001 4.002-2.365 2.001-22.191 2.729-106.044 3.092l-102.952.364L630 584.524h37.106l37.288.182-23.646 22.556L657.102 630l110.046-.546c109.863-.364 110.045-.364 120.231-4.547 16.007-6.367 30.74-16.736 48.566-34.198 16.734-16.736 22.191-24.921 26.01-39.656 2.911-11.642-1.273-22.92-10.731-28.741-6.73-4.183-7.458-4.183-76.214-4.729-38.379-.364-71.01.909-71.01 0 0-.728 5-5.083 6.529-7.276l3.971-4.002h188.2L1070 439H776.06L660.376 553.6z" fill="#E10600"/><path d="M585 630h61.38L684 592h-61.38L585 630z" fill="#E10600"/></svg>